{"title":"Pairon Talle [Soul of Sand] 2010 Critically Acclaimed 1CD Dvdrip","uid":8239275,"size":615191152,"categoryP":"video","categoryS":"movies","magnet":"?xt=urn:btih:0dc1e0b269814a1e8eec6411d4be9b1294aa9b2e&amp;dn=Pairon+Talle+%5BSoul+of+Sand%5D+2010+Critically+Acclaimed+1CD+Dvdrip&amp;tr=udp%3A%2F%2Ftracker.openbittorrent.com%3A80&amp;tr=udp%3A%2F%2Fopen.demonii.com%3A1337&amp;tr=udp%3A%2F%2Ftracker.coppersurfer.tk%3A6969&amp;tr=udp%3A%2F%2Fexodus.desync.com%3A6969","seeders":2,"leechers":0,"uploader":"brego45","files":1,"time":1362930345,"description":"\nPairon Talle [Soul of Sand] 2010 Critically Acclaimed 1CD Dvdrip X264 AAC [RRG DBB][DADA]\n \n\n\nCover -\n &lt;a href=&quot;\nhttp://desibbrg.org/images/99884660700051225370.jpg&quot; rel=&quot;nofollow&quot; target=&quot;_NEW&quot;&gt;\nhttp://desibbrg.org/images/99884660700051225370.jpg&lt;/a&gt;\n\n\nScreens -\n\n\n &lt;a href=&quot;\nhttp://desibbrg.org/images/39793715499368906230.jpg&quot; rel=&quot;nofollow&quot; target=&quot;_NEW&quot;&gt;\nhttp://desibbrg.org/images/39793715499368906230.jpg&lt;/a&gt; &lt;a href=&quot;\nhttp://desibbrg.org/images/60535655868248968412.jpg&quot; rel=&quot;nofollow&quot; target=&quot;_NEW&quot;&gt;\nhttp://desibbrg.org/images/60535655868248968412.jpg&lt;/a&gt; &lt;a href=&quot;\nhttp://desibbrg.org/images/57007222397978133915.jpg&quot; rel=&quot;nofollow&quot; target=&quot;_NEW&quot;&gt;\nhttp://desibbrg.org/images/57007222397978133915.jpg&lt;/a&gt; &lt;a href=&quot;\nhttp://desibbrg.org/images/52807117148997255396.jpg&quot; rel=&quot;nofollow&quot; target=&quot;_NEW&quot;&gt;\nhttp://desibbrg.org/images/52807117148997255396.jpg&lt;/a&gt; &lt;a href=&quot;\nhttp://desibbrg.org/images/94377200680257629433.jpg&quot; rel=&quot;nofollow&quot; target=&quot;_NEW&quot;&gt;\nhttp://desibbrg.org/images/94377200680257629433.jpg&lt;/a&gt;\n\n\n\nInfo - \n \n\nPairon.Talle.2010.Critically.Acclaimed.1CD.Dvdrip. X264.AAC.RRG.DADA.\n\nFormat : Mp4 Video\nFile size : 587 MiB\nDuration : 1h 38mn\nOverall bit rate : 829 Kbps\n\n\nVideo\nID : 1\nFormat : VP8\nCodec ID : V_VP8\nDuration : 1h 38mn\nBit rate : 659 Kbps\nWidth : 854 pixels\nHeight : 480 pixels\nDisplay aspect ratio : 16:9\nFrame rate : 1 000.000 fps\nBits/(Pixel*Frame) : 0.002\nStream size : 467 MiB (80%)\nLanguage : English / English\n\nAudio\nID : 2\nFormat : Vorbis\nFormat settings, Floor : 1\nCodec ID : A_VORBIS\nDuration : 1h 38mn\nBit rate : 128 Kbps\nChannel(s) : 2 channels\nSampling rate : 44.1 KHz\nBit depth : 16 bits\nStream size : 90.6 MiB (15%)\nLanguage : English \n &lt;a href=&quot;\nhttp://www.imdb.com/title/tt1709731/&quot; rel=&quot;nofollow&quot; target=&quot;_NEW&quot;&gt;\nhttp://www.imdb.com/title/tt1709731/&lt;/a&gt;\n\n\n\nAbout this movie\n\n    Genres:\nIndian Cinema, Drama, Mystery &amp; Suspense\n    Language:\nHindi\n    Running time:\n1:38:59\n    Released:\nSep 12, 2010\n\nCast &amp; Crew\nCast\n\n    Dibyendu Bhattacharya\n    Saba Joshi\n    Avtar Sahani\n    Geeta Bisht\n\nDirectors\n\n    Sidharth Srinivasan\n\nProducers\n\n    Sidharth Srinivasan\n\nWriters\n\n    Sidharth Srinivasan\n\n\nBhanu Kumar, a lower-caste watchman stands guard over his feudal master's disused, barren silica mine. A creature of habit, Bhanu reflects powerlessness so complete it can only make the world stand still. But one night, a runaway couple in desperate search of refuge come to Bhanu seeking shelter. Bhanu must make a choice between habit and humanity. The rusted gate of the Royal Silica Mine opens exposing a bloody world of lust, fear &amp; violence in the name of caste, ownership and honour. \n","torrent":{"xt":"urn:btih:0dc1e0b269814a1e8eec6411d4be9b1294aa9b2e","amp;dn":"Pairon+Talle+%5BSoul+of+Sand%5D+2010+Critically+Acclaimed+1CD+Dvdrip","amp;tr":["udp%3A%2F%2Ftracker.openbittorrent.com%3A80","udp%3A%2F%2Fopen.demonii.com%3A1337","udp%3A%2F%2Ftracker.coppersurfer.tk%3A6969","udp%3A%2F%2Fexodus.desync.com%3A6969"],"infoHash":"0dc1e0b269814a1e8eec6411d4be9b1294aa9b2e","infoHashBuffer":{"type":"Buffer","data":[13,193,224,178,105,129,74,30,142,236,100,17,212,190,155,18,148,170,155,46]},"announce":[],"urlList":[]}}